<svg width="555" height="536" viewBox="0 0 555 536" fill="none" xmlns="http://www.w3.org/2000/svg">
<path d="M324.856 428.907C323.817 426.05 318.435 426.181 315.57 426.181C312.728 425.865 316.287 426.762 313.525 426.181C308.01 425.02 308.669 422.524 308.669 417.577V395.128C308.669 389.155 308.314 383.806 310.501 378.217C314.092 369.04 312.503 357.342 312.503 347.633C312.503 336.331 313.057 325.508 313.951 314.323C314.473 307.804 314.724 301.099 314.803 294.558C314.908 286.011 318.557 278.485 319.659 270.065C321.801 253.708 320.171 236.312 320.171 219.844C320.171 201.061 317.196 183.852 314.377 165.405C311.126 144.124 306.135 122.934 301.172 102.022C299.079 93.1998 295.981 84.0616 291.077 76.3786C286.659 69.4564 286.434 63.2482 286.434 55.2508C286.434 49.2841 288.734 43.9475 288.734 38.127C288.734 33.8823 289.937 29.916 293.122 26.9667C301.038 19.6366 310.008 18.277 320.341 18.277C326.978 18.277 334.214 17.4466 340.702 19.0437C347.279 20.6628 352.611 21.1823 358.422 25.1776C363.698 28.8045 365.707 30.5448 372.436 30.5448C382.389 30.5448 394.722 29.7212 403.574 24.8369C404.053 24.5731 413.082 18.5193 413.372 21.5143C413.644 24.3309 411.481 28.3481 409.708 30.2892C403.749 36.8156 388.154 33.6584 380.572 32.419C374.414 31.4124 367.718 30.78 361.489 31.4819C350.174 32.7568 351.564 45.347 359.231 50.7781C362.929 53.3976 364.74 55.0804 369.412 55.0804C375.714 55.0804 381.46 55.2669 387.558 53.5469C389.77 52.9232 392.002 52.3756 394.203 51.7153C394.702 51.5656 395.788 50.8989 395.737 51.4171C395.588 52.901 391.55 55.2022 390.583 55.8471C380.202 62.7675 366.571 64.8294 354.333 65.048C345.056 65.2136 328.178 62.9753 320.554 69.8614C314.731 75.1205 315.196 88.1488 316.848 95.2063C319.097 104.816 332.66 99.7675 338.743 98.1028C350.406 94.9107 362.169 90.2895 371.371 82.2569C376.107 78.123 381.333 73.6612 387.814 72.8857C391.252 72.4743 394.835 72.7153 398.292 72.7153C403.449 72.7153 409.336 73.2974 414.053 75.4415C419.609 77.9668 424.552 79.6067 430.836 78.5085C435.079 77.767 439.124 75.9845 443.274 74.8452C444.17 74.5994 449.584 71.8785 450.345 72.5449C452.156 74.1288 447.742 78.187 446.895 78.8066C443.65 81.1814 440.228 81.8551 436.289 81.9162C429.24 82.0255 422.165 81.5397 415.161 82.5125C410.056 83.2216 408.345 85.6094 408.345 90.6485C408.345 93.6017 409.545 93.4172 412.264 93.4172H443.615C449.406 93.4172 455.449 93.9014 461.165 92.9487C464.43 92.4044 467.727 91.395 470.962 90.6485C472.712 90.2446 475.967 88.3838 477.778 88.9872C478.657 89.2803 478.185 94.4891 478.076 95.4193C477.549 99.8943 474.649 100.429 470.792 99.9345C464.268 99.0982 457.51 99.5511 450.942 99.5511C445.876 99.5511 440.21 99.4985 435.522 101.681C430.842 103.859 425.592 107.144 420.528 108.283C415.293 109.461 409.294 108.752 403.958 108.752C400.253 108.752 397.854 106.756 394.544 105.259C389.361 102.916 379.575 103.265 374.098 104.663C363.711 107.312 354.207 112.908 346.538 120.381C340.859 125.914 332.385 130.398 331.757 139.038C330.68 153.846 340.259 169.85 356.037 170.091C362.952 170.196 372.358 170.049 373.714 161.231C374.338 157.177 374.361 151.863 372.266 148.196C370.352 144.846 370.075 141.177 365.408 140.955C358.537 140.628 351.706 143.463 344.834 143.937C343.166 144.052 335.084 144.84 338.402 140.785C340.209 138.576 343.162 134.095 345.984 133.458C356.472 131.09 366.099 130.987 376.909 130.987C382.737 130.987 387.461 131.834 392.84 134.225C398.492 136.737 402.875 141.502 408.686 143.681C416.422 146.582 426.41 146.106 434.499 145.129C439.383 144.54 448.216 144.803 448.216 138.484C448.216 135.045 449.378 128.873 447.065 126.046C444.711 123.169 435.979 124.853 432.71 124.853H425.213C424.588 124.853 422.964 125.269 423.339 124.768L423.419 124.662C424.287 123.504 424.916 122.664 426.406 122.127C430.223 120.753 434.591 118.099 438.674 117.953C443.113 117.794 447.868 119.189 452.049 120.636C454.054 121.33 456.204 121.431 458.183 122.127C460.076 122.793 461.329 124.475 463.21 125.152C467.283 126.618 473.062 125.62 477.352 125.62C484.675 125.62 490.718 124.78 497.542 121.829C500.505 120.548 515.149 112.201 512.451 121.105C511.775 123.337 503.875 124.981 502.143 125.194C493.134 126.301 484.168 127.446 475.179 128.73C470.237 129.436 465.31 130.772 460.398 131.754C453.707 133.092 452.816 134.464 452.816 140.785C452.816 145.238 452.49 149.389 457.757 149.389C459.688 149.389 474.335 146.618 474.711 148.026C475.053 149.31 472.478 158.032 470.707 158.505C467.842 159.269 463.852 158.59 460.909 158.59H448.471C442.843 158.59 438.138 157.031 432.71 156.46C428.57 156.024 424.344 156.081 420.443 154.415C417.426 153.128 414.705 151.607 411.583 150.539C406.954 148.956 403.19 145.933 397.994 145.598C396.537 145.504 387.729 144.775 387.643 146.322C387.431 150.15 386.559 156.315 388.538 159.655C390.626 163.178 392.398 164.724 396.248 164.724C398.332 164.724 401.734 164.741 403.574 165.831C405.408 166.918 414.934 167.385 415.5 169.367C416.162 171.684 412.987 172.805 411.583 170.815C410.198 168.854 408.16 172.303 406.045 172.391C400.927 172.604 394.844 175.154 390.284 177.375C384.274 180.303 377.466 179.292 370.946 179.292C359.04 179.292 343.2 177.397 336.783 190.537C334.525 195.161 334.403 205.23 336.016 210.132C337.979 216.095 341.677 217.629 347.517 217.629C351.595 217.629 358.089 218.799 361.745 216.649C367.358 213.347 373.175 209.436 378.443 205.616C385.646 200.394 393.851 195.335 400.422 189.345C406.907 183.434 412.514 174.859 420.4 170.815C435.279 163.185 450.518 162.717 466.532 165.831C474.33 167.348 481.51 172.592 489.364 173.115C492.498 173.324 493.453 172.647 493.453 169.367C493.453 166.923 494.742 160.589 492.346 159.357C488.915 157.592 481.717 159.594 479.226 156.886C476.903 154.361 480.148 147.702 482.378 146.066C484.922 144.201 491.514 145.759 493.794 147.174C499.629 150.796 501.939 153.989 509.299 153.989C516.637 153.989 523.496 151.788 530.768 151.689C537.433 151.599 545.488 150.443 551.938 152.115C555.459 153.028 554.025 158.37 554.025 161.146C554.025 162.714 553.878 163.794 552.79 161.87C551.246 159.138 549.305 157.906 546.102 157.823C540.966 157.69 539.596 163.225 535.027 164.383C530.249 165.593 522.096 164.525 517.861 162.296C515.388 160.994 507.289 155.3 505.891 160.89C505.21 163.616 505.465 167.874 506.488 170.432C507.315 172.499 507.974 177.214 509.256 178.781C510.157 179.881 516.361 175.798 517.477 175.202C521.083 173.279 527.802 174.691 531.79 174.691H532.509C534.609 174.632 538.087 174.691 536.646 174.691H532.509C532.146 174.702 531.825 174.716 531.577 174.734C527.596 175.029 524.385 177.739 521.822 180.484C518.281 184.278 513.12 183.184 508.191 183.125C498.828 183.014 489.701 180.825 480.291 180.825C470.594 180.825 460.95 181.487 451.283 181.592C444.306 181.668 438.638 183.464 431.859 184.489C422.734 185.868 415.128 191.131 408.771 197.651C402.932 203.64 396.604 210.953 392.84 218.481C391.148 221.864 388.099 229.896 393.777 229.896C398.55 229.896 401.078 227.336 404.597 224.274C410.881 218.804 413.545 209.645 418.483 203.061L418.565 202.952C421.598 198.908 424.58 194.93 429.516 193.136C434.674 191.26 440.5 192.698 445.788 193.05C450.88 193.39 455.816 195.15 461.08 195.393C463.572 195.508 470.901 196.927 468.406 196.927C464.611 196.927 460.55 197.669 456.99 198.971C452.971 200.442 449.498 203.187 445.745 205.19C441.643 207.38 437.198 208.735 433.733 211.963C429.719 215.703 424.542 219.865 421.38 224.359C418.981 227.768 415.18 229.825 413.414 233.773C410.752 239.724 407.225 245.69 402.211 250.002C398.048 253.582 393.641 256.63 389.688 260.481C384.563 265.473 375.08 268.238 368.092 265.55C367.614 265.366 366.946 265.235 366.184 265.144C365.922 265.159 365.663 265.166 365.408 265.166H359.359C356.957 265.166 362.604 264.716 366.184 265.144C373.588 264.729 383.548 258.552 387.473 252.728C389.932 249.079 389.177 244.55 389.177 240.375C389.177 235.323 386.803 235.264 382.234 235.264C367.907 235.264 350.763 240.225 346.58 255.795C343.95 265.585 346.88 277.114 348.582 286.763C349.443 291.64 352.137 297.094 357.911 295.495C364.158 293.765 370.461 291.894 376.568 289.702C385.321 286.56 390.214 281.557 397.611 275.901C406.632 269.002 414.532 260.998 422.828 253.324C430.567 246.166 438.945 239.799 445.915 231.941C450.133 227.186 451.772 221.44 455.627 216.521C459.259 211.888 463.872 205.361 470.195 205.361C478.8 205.361 486.365 207.082 492.814 200.633C498.027 195.42 496.592 197.366 496.52 202.89C496.455 207.926 494.893 211.597 489.279 212.432C485.065 213.058 472.482 210.84 470.195 215.414C469.078 217.648 468.828 224.431 470.153 226.787C473.718 233.125 487.069 221.872 489.619 219.758C497.484 213.242 506.094 214.562 515.731 214.562C518.732 214.562 522.316 213.834 524.889 215.499C527.233 217.016 526.889 218.024 524.378 217.288C519.902 215.976 515.248 215.694 510.577 216.223C502.647 217.121 499.557 221.209 494.177 226.489C488.166 232.388 482.323 238.714 475.222 243.357C470.049 246.739 462.405 245.231 456.522 245.231C446.39 245.231 430.777 242.02 430.581 255.965C430.486 262.694 433.897 266.7 440.932 266.7C444.722 266.7 446.144 266.645 448.727 263.718C451.788 260.248 456.029 258.002 460.313 256.306C467.154 253.598 476.653 253.464 483.911 254.602C489.475 255.475 491.794 259.697 496.769 261.29C497.511 261.292 498.252 261.303 498.991 261.333C501.572 261.436 498.52 261.83 496.903 261.333C496.858 261.319 496.814 261.305 496.769 261.29C495.124 261.287 493.475 261.333 491.834 261.333C487.6 261.333 481.427 261.187 477.437 262.568C472.179 264.388 467.521 267.903 462.4 270.065C454.761 273.29 446.08 274.101 438.248 277.264C432.473 279.596 425.627 281.787 423.85 288.893C423.486 290.348 422.977 298.786 424.958 299.499C427.081 300.263 430.406 299.669 432.625 299.669C436.52 299.669 439.635 300.408 441.443 296.432C443.339 292.26 447.963 286.606 452.859 285.953C458.981 285.137 477.565 285.868 471.388 285.868C460.653 285.868 451.342 294.46 443.7 300.947C436.463 307.093 429.491 312.5 419.889 314.195C412.19 315.554 405.536 318.838 397.611 318.838C386.122 318.838 373.323 317.454 362.98 323.566C357.242 326.956 350.455 331.597 349.477 338.773C348.865 343.26 348.586 349.454 350.073 353.767C351.925 359.137 350.224 364.082 353.311 369.272C355.749 373.373 360.391 372.833 364.62 372.342L364.641 372.339C382.188 370.299 389.033 348.15 404.852 342.777C411.338 340.575 419.667 341.84 426.406 341.84H436.331C437.352 341.84 435.121 342.537 434.67 342.777C430.881 344.792 426.499 345.188 422.402 346.27C418.985 347.173 416.032 348.991 412.946 350.657C406.004 354.406 396.599 359.522 394.288 367.739C393.851 369.293 393.111 380.635 395.013 379.367C396.702 378.241 398.376 377.175 399.996 375.96C403.904 373.029 407.211 368.926 411.412 366.376C415.445 363.927 421.006 364.842 425.554 364.842C429.854 364.842 432.091 365.814 436.076 367.142C437.76 367.704 442.674 369.434 443.53 371.359C445.343 375.438 443.625 389.137 442.891 384.735C442.157 380.332 436.333 380.779 432.881 380.944C425.03 381.317 418.046 387.031 411.838 391.252C404.538 396.216 398.492 400.987 393.011 407.95C386.699 415.967 380.748 425.175 373.075 431.889C364.072 439.767 353.355 438.76 341.98 438.449C339.937 438.393 332.894 437.201 331.331 435.637C330.173 434.48 329.898 433.132 328.434 432.145C327.212 431.32 325.396 430.393 324.856 428.907Z" fill="#2F2F2F"/>
<path fill-rule="evenodd" clip-rule="evenodd" d="M245.5 433C270.077 433 290 357.784 290 265C290 172.216 270.077 97 245.5 97C220.923 97 201 172.216 201 265C201 357.784 220.923 433 245.5 433ZM242.5 209L250.5 103L259 113L251 212.5C251 212.5 251.121 213.283 251.5 213.5C251.839 213.694 252.5 213.5 252.5 213.5L270 135.5L276 155C276 155 265 196.5 258 223.5C257.722 229.547 258 239 258 239C258 239 260.189 244.26 262.5 247C263.835 248.583 265.089 249.306 266.659 250.211C267.081 250.454 267.525 250.711 268 251C276 251.5 286.5 251.5 286.5 251.5V266H262.5L285.5 278.5V295L263 280C263 280 260.801 279.956 259.5 281C256.721 283.23 258 290 258 290L278 362.5L274.5 380.5C274.5 380.5 263 336 253 312C253 325.5 268.5 400.5 268.5 400.5L260.5 415C260.5 415 252 351.5 245.5 323.5C244.5 320.5 243.124 319.124 240.5 319C237.728 318.869 235 323.5 235 323.5L212 370L207.5 344.5L230 306.5C230 306.5 231 303.5 230 302C228.5 301 204.5 323.5 204.5 323.5V302C204.5 302 229.108 294.5 230 266C230.564 247.975 204.5 227.5 204.5 227.5L205.5 203.5C205.5 203.5 224.5 228 230 229.5C231.5 227.5 231 226 230 223.5C229 221 209 180 209 180L214.5 153L235.5 209C235.5 209 237.563 213.987 240 213.5C242.071 213.086 242.5 209 242.5 209ZM256 265.5C256 277.891 254.731 288.841 252.791 295.438C251.575 299.574 250.096 302 248.5 302C248.065 302 247.638 301.82 247.223 301.473C243 298.578 241 283.54 241 265.5C241 245.342 244.358 229 248.5 229C254 229 256 245.342 256 265.5ZM250 284C252.209 284 254 275.941 254 266C254 256.059 252.209 248 250 248C247.791 248 246 256.059 246 266C246 275.941 247.791 284 250 284Z" fill="#CD5C08"/>
<path fill-rule="evenodd" clip-rule="evenodd" d="M250.5 103L242.5 209C242.5 209 242.071 213.086 240 213.5C237.563 213.987 235.5 209 235.5 209L214.5 153L209 180C209 180 229 221 230 223.5C231 226 231.5 227.5 230 229.5C224.5 228 205.5 203.5 205.5 203.5L204.5 227.5C204.5 227.5 230.564 247.975 230 266C229.108 294.5 204.5 302 204.5 302V323.5C204.5 323.5 228.5 301 230 302C231 303.5 230 306.5 230 306.5L207.5 344.5L212 370L235 323.5C235 323.5 237.728 318.869 240.5 319C243.124 319.124 244.5 320.5 245.5 323.5C252 351.5 260.5 415 260.5 415L268.5 400.5C268.5 400.5 253 325.5 253 312C263 336 274.5 380.5 274.5 380.5L278 362.5L258 290C258 290 256.721 283.23 259.5 281C260.801 279.956 263 280 263 280L285.5 295V278.5L262.5 266H286.5V251.5C286.5 251.5 276 251.5 268 251C267.525 250.711 267.081 250.454 266.659 250.211C265.089 249.306 263.835 248.583 262.5 247C260.189 244.26 258 239 258 239C258 239 257.722 229.547 258 223.5C265 196.5 276 155 276 155L270 135.5L252.5 213.5C252.5 213.5 251.839 213.694 251.5 213.5C251.121 213.283 251 212.5 251 212.5L259 113L250.5 103ZM252.791 295.438C251.575 299.574 250.096 302 248.5 302C248.065 302 247.638 301.82 247.223 301.473C244.85 299.846 241 292.695 241 265.5C241.5 229.5 248.5 229 248.5 229C248.5 229 256 231 256 265.5C255.5 281 254.69 290.358 252.791 295.438Z" fill="#2F2F2F"/>
<path d="M254 266C254 275.941 252.209 284 250 284C247.791 284 246 275.941 246 266C246 256.059 247.791 248 250 248C252.209 248 254 256.059 254 266Z" fill="#2F2F2F"/>
<path fill-rule="evenodd" clip-rule="evenodd" d="M285.5 41.5C272.69 26.695 263.669 19.4088 246.5 10C232 1.5 170 0.500021 110.5 10C87.3368 20.7607 75.2066 30.1255 57.9999 49C31.4999 89.5 23.4887 124.5 13.9999 178C4.3091 232.639 6.87955 269.879 10.4377 321.428C10.7858 326.472 11.1434 331.652 11.4999 337C18.5 387.5 25 413 44.9999 454.5C45.9463 456.192 46.8722 457.855 47.7824 459.49C62.5058 485.932 73.101 504.961 98.9999 520.5C118 528 126 530.5 144.5 530.5C175.5 533 188 533 219.5 533C240.5 533 250.309 529.133 266.5 518.5C277.841 509.285 283.253 501.277 289.824 491.553C292.523 487.559 295.418 483.276 299 478.5C306.497 460.479 310.234 450.147 316 431.5C340.5 285.5 332.5 146.5 285.5 41.5ZM252.5 468C286.465 468 314 377.338 314 265.5C314 153.662 286.465 63 252.5 63C218.534 63 191 153.662 191 265.5C191 377.338 218.534 468 252.5 468Z" fill="#CD5C08"/>
<path fill-rule="evenodd" clip-rule="evenodd" d="M314 265.5C314 377.338 286.465 468 252.5 468C218.534 468 191 377.338 191 265.5C191 153.662 218.534 63 252.5 63C286.465 63 314 153.662 314 265.5ZM245.5 433C270.077 433 290 357.784 290 265C290 172.216 270.077 97 245.5 97C220.923 97 201 172.216 201 265C201 357.784 220.923 433 245.5 433Z" fill="#2F2F2F"/>
<path d="M288 45.5C275.19 30.695 263.425 19.164 246.256 9.7552C231.756 1.25519 169.757 0.255209 110.257 9.7552C87.0934 20.5158 74.9632 29.8806 57.7565 48.7552C31.2565 89.2552 23.2453 124.255 13.7565 177.755C4.06569 232.395 6.63614 269.634 10.1943 321.183C10.5424 326.227 10.9 331.408 11.2565 336.755C18.2566 387.255 24.7566 412.755 44.7565 454.255C45.7029 455.947 46.6288 457.61 47.539 459.245C62.2624 485.687 72.8576 504.716 98.7565 520.255C117.757 527.755 125.757 530.255 144.257 530.255C175.257 532.755 187.757 532.755 219.256 532.755C240.257 532.755 250.066 528.888 266.257 518.255C277.598 509.04 283.01 501.032 289.581 491.308C292.28 487.314 300.418 472.276 304 467.5" stroke="#2F2F2F" stroke-width="5" stroke-linecap="round"/>
<path d="M292 50.5C283.919 44.4721 272.36 41 263.5 41C214.071 41 174 141.736 174 266C174 390.264 214.071 491 263.5 491C277.48 491 290.712 482.942 302.5 468.572C314.288 454.202 320 422 320 422" stroke="#2F2F2F" stroke-width="5" stroke-linecap="round"/>
<path d="M193.525 511.337C188.993 504.328 184.643 496.697 180.501 488.5M212.838 18.1409C202.826 24.4964 193.484 33.8783 184.982 45.8368C183.241 48.2846 181.536 50.8402 179.868 53.5M163.864 84.8368C158.746 97.0691 154.189 110.52 150.264 125M163.864 84.8368L205.414 62M163.864 84.8368C168.715 73.2422 174.07 62.7426 179.868 53.5M133.762 253.337C133.887 242.471 134.294 231.791 134.967 221.337C135.18 218.035 135.419 214.756 135.685 211.5M133.762 253.337C133.651 263.031 133.764 272.873 134.111 282.837C134.213 285.771 134.336 288.715 134.479 291.67C134.59 293.954 134.712 296.23 134.846 298.5M133.762 253.337L168.914 224.5M180.501 488.5C179.89 487.291 179.284 486.07 178.682 484.837C174.487 476.239 170.518 467.052 166.803 457.337C165.204 453.154 163.652 448.874 162.15 444.5M180.501 488.5L201.414 457.337M162.15 444.5C160.453 439.562 158.821 434.505 157.255 429.337C154.494 420.225 151.941 410.766 149.615 401M162.15 444.5L186.414 416M149.615 401C149.404 400.115 149.195 399.227 148.988 398.337C146.655 388.307 144.56 377.96 142.724 367.337C141.738 361.635 140.827 355.854 139.994 350M149.615 401L175.914 371.5M139.994 350C139.352 345.488 138.756 340.933 138.207 336.337C136.977 326.03 135.986 315.519 135.251 304.837C135.106 302.731 134.971 300.619 134.846 298.5M139.994 350L170.414 319M134.846 298.5L166.914 265.5M135.685 211.5C136.425 202.419 137.37 193.523 138.508 184.837C139.46 177.572 140.548 170.455 141.765 163.5M135.685 211.5L171.914 183.5M141.765 163.5C142.097 161.6 142.439 159.712 142.791 157.837C144.936 146.404 147.436 135.435 150.264 125M141.765 163.5L180.914 135M150.264 125L191.914 97M179.868 53.5L231.414 26.5" stroke="#2F2F2F" stroke-width="5" stroke-linecap="round"/>
<path d="M155.878 510.337C152.53 505.353 149.288 500.012 146.164 494.337C145.558 493.237 144.957 492.125 144.361 491M174.409 18.3368C165.878 25.4022 157.837 34.6673 150.408 45.8368C148.187 49.1758 146.021 52.6848 143.914 56.3562M100.526 215.837C101.566 203.854 102.948 192.168 104.651 180.837C105.431 175.648 106.278 170.534 107.19 165.5M100.526 215.837C99.5639 226.93 98.896 238.279 98.5412 249.837C98.453 252.712 98.3841 255.6 98.3348 258.5M100.526 215.837L137.414 190.5M143.914 56.3562C140.349 62.565 136.95 69.2379 133.733 76.3368C131.601 81.0412 129.548 85.9326 127.58 91M143.914 56.3562L192.914 34.5M127.58 91C124.938 97.804 122.447 104.925 120.12 112.337C118.672 116.948 117.288 121.671 115.969 126.5M127.58 91L170.914 68.5M115.969 126.5C114.213 132.93 112.574 139.547 111.057 146.337C109.662 152.583 108.372 158.974 107.19 165.5M115.969 126.5L156.914 103.5M107.19 165.5L143.914 142M98.3348 258.5C98.2054 266.126 98.2118 273.837 98.3593 281.62C98.5054 289.327 98.787 296.958 99.1986 304.5M98.3348 258.5L134.414 230.5M99.1986 304.5C99.3601 307.459 99.5416 310.405 99.7428 313.337C100.573 325.431 101.738 337.281 103.215 348.837C103.478 350.901 103.752 352.955 104.036 355M99.1986 304.5L132.914 272M104.036 355C105.087 362.584 106.273 370.034 107.588 377.337C109.263 386.642 111.145 395.707 113.222 404.5M104.036 355L136.914 325M113.222 404.5C113.645 406.29 114.076 408.069 114.514 409.837C117.555 422.085 120.975 433.78 124.736 444.837C125.155 446.066 125.577 447.287 126.003 448.5M113.222 404.5L143.414 374.5M126.003 448.5C129.194 457.577 132.618 466.206 136.251 474.337C138.85 480.152 141.556 485.713 144.361 491M126.003 448.5L153.414 420M144.361 491L167.914 463" stroke="#2F2F2F" stroke-width="5" stroke-linecap="round"/>
<path d="M136.267 510.337C131.439 502.749 126.818 494.447 122.437 485.5M148.838 17.2945C138.017 26.0565 128.083 38.503 119.273 54M122.437 485.5L83.9136 472.5M122.437 485.5C116.813 474.014 111.586 461.466 106.826 448M106.826 448L66.4136 424.5M106.826 448C102.013 434.386 97.6784 419.836 93.8955 404.5M93.8955 404.5L56.4136 379M93.8955 404.5C89.9351 388.444 86.5795 371.528 83.9136 353.925M83.9136 353.925L45.9136 321M83.9136 353.925C81.4736 337.814 79.6112 321.128 78.3916 304M78.3916 304C78.0287 298.903 77.7227 293.766 77.4753 288.594C76.9404 277.411 76.6942 266.367 76.723 255.5M78.3916 304L42.9136 270M76.723 255.5L42.9136 220.5M76.723 255.5C76.7671 238.876 77.4546 222.665 78.7358 207M78.7358 207L47.9136 171M78.7358 207C80.0549 190.873 82.0032 175.325 84.5268 160.5M84.5268 160.5L58.4136 122M84.5268 160.5C86.819 147.034 89.5859 134.164 92.7868 122M92.7868 122L71.4136 81M92.7868 122C96.2632 108.789 100.252 96.409 104.7 85M104.7 85L87.9136 50M104.7 85C109.121 73.6627 113.995 63.2839 119.273 54M119.273 54L104.7 27" stroke="#2F2F2F" stroke-width="5" stroke-linecap="round"/>
<path d="M102.889 509.337C98.6998 502.74 94.6627 495.613 90.7994 488M113.838 17C100.661 27.5578 88.8314 43.6086 78.7706 64M78.7706 64L72.4136 52M78.7706 64C73.0879 75.5178 67.9696 88.4203 63.4918 102.5M63.4918 102.5L52.4136 81.5M63.4918 102.5C59.1836 116.046 55.4682 130.682 52.4136 146.223M52.4136 146.223L35.9136 118.5M52.4136 146.223C49.3515 161.802 46.9533 178.289 45.2873 195.5M45.2873 195.5L22.4136 164.5M45.2873 195.5C43.7907 210.962 42.8849 227.007 42.6197 243.5M42.6197 243.5C42.3791 258.464 42.6657 273.797 43.5165 289.399C43.6095 291.103 43.7088 292.804 43.8143 294.5M42.6197 243.5L16.9136 209.5M43.8143 294.5L12.9136 260M43.8143 294.5C44.957 312.859 46.8355 330.746 49.3712 348M49.3712 348L16.9136 315M49.3712 348C52.2181 367.372 55.8932 385.947 60.2849 403.5M60.2849 403.5L27.9136 382.5M60.2849 403.5C64.2614 419.394 68.8255 434.449 73.8941 448.5M73.8941 448.5L43.8143 431.5M73.8941 448.5C79.0383 462.76 84.7023 475.985 90.7994 488M90.7994 488L69.9136 480.5" stroke="#2F2F2F" stroke-width="5" stroke-linecap="round"/>
</svg>
